<svg id="Camada_1" data-name="Camada 1" xmlns="http://www.w3.org/2000/svg" viewBox="0 0 448 448"><path d="M576,160H192a32,32,0,0,0-32,32V576a32,32,0,0,0,32,32H576a32,32,0,0,0,32-32V192A32,32,0,0,0,576,160ZM544,480H224V224H544Z" transform="translate(-160 -160)" opacity="0.05" style="isolation:isolate"/><path d="M224,224V480H544V224Zm64,32a32,32,0,1,1-32,32A32,32,0,0,1,288,256ZM256,448l50.69-76a16,16,0,0,1,26.62,0l20.57,30.85L403.2,337.1a16,16,0,0,1,22.4-3.2,16.17,16.17,0,0,1,3.2,3.2L512,448Z" transform="translate(-160 -160)" opacity="0.1"/></svg>